<svg xmlns="http://www.w3.org/2000/svg" xmlns:xlink="http://www.w3.org/1999/xlink" aria-hidden="true" role="img" class="iconify iconify--logos" width="35.93" height="32" preserveAspectRatio="xMidYMid meet" viewBox="0 0 256 228"><path fill="#00D8FF" d="M210.483 73.824a171.49 171.49 0 0 0-11.283-12.978c-.404-.466-.827-.928-1.238-1.4c-7.464-8.563-15.868-15.939-24.959-22.256a9.87 9.87 0 0 0-2.422-1.005a128.22 128.22 0 0 0-9.276-2.756a132.952 132.952 0 0 0-20.177-2.729a9.9 9.9 0 0 0-1.15-.04H128.01c-1.4.015-2.8.04-4.19.13c-6.97.38-13.88 1.23-20.65 2.55a9.95 9.95 0 0 0-1.87.48c-3.12.75-6.19 1.63-9.2 2.65a9.85 9.85 0 0 0-1.72.73a115.388 115.388 0 0 0-9.12 4.54a134.838 134.838 0 0 0-25.037 22.19a9.98 9.98 0 0 0-1.13 1.28a145.227 145.227 0 0 0-11.16 12.94a125.876 125.876 0 0 0-7.35 10.48a156.152 156.152 0 0 0-9.07 17.15c-.25.52-.48 1.05-.71 1.58a114.27 114.27 0 0 0-5.13 14.88a9.97 9.97 0 0 0-.28 1.16a125.67 125.67 0 0 0-3.18 15.75a9.94 9.94 0 0 0-.08 1.22v.66a132.52 132.52 0 0 0-.17 13.16a9.9 9.9 0 0 0 .08 1.22c.33 2.62.75 5.22 1.26 7.8a9.97 9.97 0 0 0 .28 1.16c.95 3.88 2.05 7.72 3.28 11.52c.23.53.46 1.06.71 1.58a156.152 156.152 0 0 0 9.07 17.15c1.55 2.8 3.2 5.55 4.93 8.25a125.876 125.876 0 0 0 7.35 10.48a145.227 145.227 0 0 0 11.16 12.94a9.98 9.98 0 0 0 1.13 1.28a134.838 134.838 0 0 0 25.037 22.19a115.388 115.388 0 0 0 9.12 4.54a9.85 9.85 0 0 0 1.72.73c2.95.98 5.97 1.84 9.03 2.56a9.95 9.95 0 0 0 1.87.48c6.77 1.32 13.68 2.17 20.65 2.55c1.39.09 2.79.12 4.19.13h1.93c1.4-.015 2.8-.04 4.19-.13c6.97-.38 13.88-1.23 20.65-2.55a9.95 9.95 0 0 0 1.87-.48c3.06-.72 6.08-1.58 9.03-2.56a9.85 9.85 0 0 0 1.72-.73a115.388 115.388 0 0 0 9.12-4.54a134.838 134.838 0 0 0 25.037-22.19a9.98 9.98 0 0 0 1.13-1.28a145.227 145.227 0 0 0 11.16-12.94c1.73-2.7 3.38-5.45 4.93-8.25a156.152 156.152 0 0 0 9.07-17.15c.25-.52.48-1.05.71-1.58a114.27 114.27 0 0 0 5.13-14.88a9.97 9.97 0 0 0 .28-1.16c.51-2.58.93-5.18 1.26-7.8a9.9 9.9 0 0 0 .08-1.22v-.66a132.52 132.52 0 0 0-.17-13.16a9.9 9.9 0 0 0-.08-1.22c-.33-2.62-.75-5.22-1.26-7.8a9.97 9.97 0 0 0-.28-1.16a114.27 114.27 0 0 0-5.13-14.88c-.23-.53-.46-1.06-.71-1.58a156.152 156.152 0 0 0-9.07-17.15a125.876 125.876 0 0 0-7.35-10.48Zm-5.376 20.45c.2.42.4.85.59 1.28c1.55 3.4 2.98 6.86 4.27 10.37c.08.22.16.44.23.66c1.15 3.23 2.2 6.5 3.13 9.8c.05.18.1.36.15.54c.7 2.55 1.35 5.12 1.93 7.7c.03.13.06.26.09.39c.52 2.3.98 4.62 1.38 6.95c.02.12.04.24.06.36c.35 2.05.66 4.11.92 6.18c.01.1.02.2.03.3c.22 1.78.4 3.57.54 5.36c.01.12.02.24.03.36c.1 1.5.18 3 .23 4.5c0 .08 0 .16.01.24c.03 1.1.05 2.2.05 3.3c0 .37 0 .74-.01 1.11c0 .55-.02 1.1-.04 1.65c-.01.24-.02.48-.04.72c-.05 1.5-.13 3-.23 4.5c-.01.12-.02.24-.03.36c-.14 1.79-.32 3.58-.54 5.36c-.01.1-.02.2-.03.3c-.26 2.07-.57 4.13-.92 6.18c-.02.12-.04.24-.06.36c-.4 2.33-.86 4.65-1.38 6.95c-.03.13-.06.26-.09.39c-.58 2.58-1.23 5.15-1.93 7.7c-.05.18-.1.36-.15.54c-.93 3.3-1.98 6.57-3.13 9.8c-.07.22-.15.44-.23.66c-1.29 3.51-2.72 6.97-4.27 10.37c-.19.43-.39.86-.59 1.28a134.376 134.376 0 0 1-8.89 15.48a115.22 115.22 0 0 1-6.15 8.88a125.3 125.3 0 0 1-9.78 11.2a115.5 115.5 0 0 1-8.56 8.12a134.7 134.7 0 0 1-22.12 16.12a115.4 115.4 0 0 1-7.84 4.1a125.4 125.4 0 0 1-17.15 6.12a115.5 115.5 0 0 1-8.88 2.12a134.7 134.7 0 0 1-24.75 2.3c-.46 0-.92-.01-1.38-.02c-3.3-.08-6.58-.3-9.83-.66a115.5 115.5 0 0 1-8.88-2.12a125.4 125.4 0 0 1-17.15-6.12a115.4 115.4 0 0 1-7.84-4.1a134.7 134.7 0 0 1-22.12-16.12a115.5 115.5 0 0 1-8.56-8.12a125.3 125.3 0 0 1-9.78-11.2a115.22 115.22 0 0 1-6.15-8.88a134.376 134.376 0 0 1-8.89-15.48c-.2-.42-.4-.85-.59-1.28c-1.55-3.4-2.98-6.86-4.27-10.37a115.22 115.22 0 0 1-.23-.66c-1.15-3.23-2.2-6.5-3.13-9.8a125.3 125.3 0 0 1-.15-.54c-.7-2.55-1.35-5.12-1.93-7.7a115.5 115.5 0 0 1-.09-.39c-.52-2.3-.98-4.62-1.38-6.95a134.7 134.7 0 0 1-.06-.36c-.35-2.05-.66-4.11-.92-6.18a115.4 115.4 0 0 1-.03-.3c-.22-1.78-.4-3.57-.54-5.36a125.4 125.4 0 0 1-.03-.36c-.1-1.5-.18-3-.23-4.5a115.5 115.5 0 0 1-.04-.72c-.02-.55-.04-1.1-.04-1.65c0-.37 0-.74-.01-1.11c0-1.1-.02-2.2-.05-3.3a134.7 134.7 0 0 1-.01-.24c-.05-1.5-.13-3-.23-4.5c-.01-.12-.02-.24-.03-.36c-.14-1.79-.32-3.58-.54-5.36c-.01-.1-.02-.2-.03-.3c-.26-2.07-.57-4.13-.92-6.18c-.02-.12-.04-.24-.06-.36c-.4-2.33-.86-4.65-1.38-6.95c-.03-.13-.06-.26-.09-.39c-.58-2.58-1.23-5.15-1.93-7.7c-.05-.18-.1-.36-.15-.54c-.93-3.3-1.98-6.57-3.13-9.8c-.07-.22-.15-.44-.23-.66c1.29-3.51 2.72-6.97 4.27-10.37c.19-.43.39-.86.59-1.28a134.376 134.376 0 0 1 8.89-15.48a115.22 115.22 0 0 1 6.15-8.88a125.3 125.3 0 0 1 9.78-11.2a115.5 115.5 0 0 1 8.56-8.12a134.7 134.7 0 0 1 22.12-16.12a115.4 115.4 0 0 1 7.84-4.1a125.4 125.4 0 0 1 17.15-6.12a115.5 115.5 0 0 1 8.88-2.12a134.7 134.7 0 0 1 24.75-2.3c.46 0 .92.01 1.38.02c3.3.08 6.58.3 9.83.66a115.5 115.5 0 0 1 8.88 2.12a125.4 125.4 0 0 1 17.15 6.12a115.4 115.4 0 0 1 7.84 4.1a134.7 134.7 0 0 1 22.12 16.12a115.5 115.5 0 0 1 8.56 8.12a125.3 125.3 0 0 1 9.78 11.2a115.22 115.22 0 0 1 6.15 8.88a134.376 134.376 0 0 1 8.89 15.48Z"></path><path fill="#00D8FF" d="M210.483 73.824a171.49 171.49 0 0 0-11.283-12.978c-.404-.466-.827-.928-1.238-1.4c-7.464-8.563-15.868-15.939-24.959-22.256a9.87 9.87 0 0 0-2.422-1.005a128.22 128.22 0 0 0-9.276-2.756a132.952 132.952 0 0 0-20.177-2.729a9.9 9.9 0 0 0-1.15-.04H128.01c-1.4.015-2.8.04-4.19.13c-6.97.38-13.88 1.23-20.65 2.55a9.95 9.95 0 0 0-1.87.48c-3.12.75-6.19 1.63-9.2 2.65a9.85 9.85 0 0 0-1.72.73a115.388 115.388 0 0 0-9.12 4.54a134.838 134.838 0 0 0-25.037 22.19a9.98 9.98 0 0 0-1.13 1.28a145.227 145.227 0 0 0-11.16 12.94a125.876 125.876 0 0 0-7.35 10.48a156.152 156.152 0 0 0-9.07 17.15c-.25.52-.48 1.05-.71 1.58a114.27 114.27 0 0 0-5.13 14.88a9.97 9.97 0 0 0-.28 1.16a125.67 125.67 0 0 0-3.18 15.75a9.94 9.94 0 0 0-.08 1.22v.66a132.52 132.52 0 0 0-.17 13.16a9.9 9.9 0 0 0 .08 1.22c.33 2.62.75 5.22 1.26 7.8a9.97 9.97 0 0 0 .28 1.16c.95 3.88 2.05 7.72 3.28 11.52c.23.53.46 1.06.71 1.58a156.152 156.152 0 0 0 9.07 17.15c1.55 2.8 3.2 5.55 4.93 8.25a125.876 125.876 0 0 0 7.35 10.48a145.227 145.227 0 0 0 11.16 12.94a9.98 9.98 0 0 0 1.13 1.28a134.838 134.838 0 0 0 25.037 22.19a115.388 115.388 0 0 0 9.12 4.54a9.85 9.85 0 0 0 1.72.73c2.95.98 5.97 1.84 9.03 2.56a9.95 9.95 0 0 0 1.87.48c6.77 1.32 13.68 2.17 20.65 2.55c1.39.09 2.79.12 4.19.13h1.93c1.4-.015 2.8-.04 4.19-.13c6.97-.38 13.88-1.23 20.65-2.55a9.95 9.95 0 0 0 1.87-.48c3.06-.72 6.08-1.58 9.03-2.56a9.85 9.85 0 0 0 1.72-.73a115.388 115.388 0 0 0 9.12-4.54a134.838 134.838 0 0 0 25.037-22.19a9.98 9.98 0 0 0 1.13-1.28a145.227 145.227 0 0 0 11.16-12.94c1.73-2.7 3.38-5.45 4.93-8.25a156.152 156.152 0 0 0 9.07-17.15c.25-.52.48-1.05.71-1.58a114.27 114.27 0 0 0 5.13-14.88a9.97 9.97 0 0 0 .28-1.16c.51-2.58.93-5.18 1.26-7.8a9.9 9.9 0 0 0 .08-1.22v-.66a132.52 132.52 0 0 0-.17-13.16a9.9 9.9 0 0 0-.08-1.22c-.33-2.62-.75-5.22-1.26-7.8a9.97 9.97 0 0 0-.28-1.16a114.27 114.27 0 0 0-5.13-14.88c-.23-.53-.46-1.06-.71-1.58a156.152 156.152 0 0 0-9.07-17.15a125.876 125.876 0 0 0-7.35-10.48Zm-5.376 20.45c.2.42.4.85.59 1.28c1.55 3.4 2.98 6.86 4.27 10.37c.08.22.16.44.23.66c1.15 3.23 2.2 6.5 3.13 9.8c.05.18.1.36.15.54c.7 2.55 1.35 5.12 1.93 7.7c.03.13.06.26.09.39c.52 2.3.98 4.62 1.38 6.95c.02.12.04.24.06.36c.35 2.05.66 4.11.92 6.18c.01.1.02.2.03.3c.22 1.78.4 3.57.54 5.36c.01.12.02.24.03.36c.1 1.5.18 3 .23 4.5c0 .08 0 .16.01.24c.03 1.1.05 2.2.05 3.3c0 .37 0 .74-.01 1.11c0 .55-.02 1.1-.04 1.65c-.01.24-.02.48-.04.72c-.05 1.5-.13 3-.23 4.5c-.01.12-.02.24-.03.36c-.14 1.79-.32 3.58-.54 5.36c-.01.1-.02.2-.03.3c-.26 2.07-.57 4.13-.92 6.18c-.02.12-.04.24-.06.36c-.4 2.33-.86 4.65-1.38 6.95c-.03.13-.06.26-.09.39c-.58 2.58-1.23 5.15-1.93 7.7c-.05.18-.1.36-.15.54c-.93 3.3-1.98 6.57-3.13 9.8c-.07.22-.15.44-.23.66c-1.29 3.51-2.72 6.97-4.27 10.37c-.19.43-.39.86-.59 1.28a134.376 134.376 0 0 1-8.89 15.48a115.22 115.22 0 0 1-6.15 8.88a125.3 125.3 0 0 1-9.78 11.2a115.5 115.5 0 0 1-8.56 8.12a134.7 134.7 0 0 1-22.12 16.12a115.4 115.4 0 0 1-7.84 4.1a125.4 125.4 0 0 1-17.15 6.12a115.5 115.5 0 0 1-8.88 2.12a134.7 134.7 0 0 1-24.75 2.3c-.46 0-.92-.01-1.38-.02c-3.3-.08-6.58-.3-9.83-.66a115.5 115.5 0 0 1-8.88-2.12a125.4 125.4 0 0 1-17.15-6.12a115.4 115.4 0 0 1-7.84-4.1a134.7 134.7 0 0 1-22.12-16.12a115.5 115.5 0 0 1-8.56-8.12a125.3 125.3 0 0 1-9.78-11.2a115.22 115.22 0 0 1-6.15-8.88a134.376 134.376 0 0 1-8.89-15.48c-.2-.42-.4-.85-.59-1.28c-1.55-3.4-2.98-6.86-4.27-10.37a115.22 115.22 0 0 1-.23-.66c-1.15-3.23-2.2-6.5-3.13-9.8a125.3 125.3 0 0 1-.15-.54c-.7-2.55-1.35-5.12-1.93-7.7a115.5 115.5 0 0 1-.09-.39c-.52-2.3-.98-4.62-1.38-6.95a134.7 134.7 0 0 1-.06-.36c-.35-2.05-.66-4.11-.92-6.18a115.4 115.4 0 0 1-.03-.3c-.22-1.78-.4-3.57-.54-5.36a125.4 125.4 0 0 1-.03-.36c-.1-1.5-.18-3-.23-4.5a115.5 115.5 0 0 1-.04-.72c-.02-.55-.04-1.1-.04-1.65c0-.37 0-.74-.01-1.11c0-1.1-.02-2.2-.05-3.3a134.7 134.7 0 0 1-.01-.24c-.05-1.5-.13-3-.23-4.5c-.01-.12-.02-.24-.03-.36c-.14-1.79-.32-3.58-.54-5.36c-.01-.1-.02-.2-.03-.3c-.26-2.07-.57-4.13-.92-6.18c-.02-.12-.04-.24-.06-.36c-.4-2.33-.86-4.65-1.38-6.95c-.03-.13-.06-.26-.09-.39c-.58-2.58-1.23-5.15-1.93-7.7c-.05-.18-.1-.36-.15-.54c-.93-3.3-1.98-6.57-3.13-9.8c-.07-.22-.15-.44-.23-.66c1.29-3.51 2.72-6.97 4.27-10.37c.19-.43.39-.86.59-1.28a134.376 134.376 0 0 1 8.89-15.48a115.22 115.22 0 0 1 6.15-8.88a125.3 125.3 0 0 1 9.78-11.2a115.5 115.5 0 0 1 8.56-8.12a134.7 134.7 0 0 1 22.12-16.12a115.4 115.4 0 0 1 7.84-4.1a125.4 125.4 0 0 1 17.15-6.12a115.5 115.5 0 0 1 8.88-2.12a134.7 134.7 0 0 1 24.75-2.3c.46 0 .92.01 1.38.02c3.3.08 6.58.3 9.83.66a115.5 115.5 0 0 1 8.88 2.12a125.4 125.4 0 0 1 17.15 6.12a115.4 115.4 0 0 1 7.84 4.1a134.7 134.7 0 0 1 22.12 16.12a115.5 115.5 0 0 1 8.56 8.12a125.3 125.3 0 0 1 9.78 11.2a115.22 115.22 0 0 1 6.15 8.88a134.376 134.376 0 0 1 8.89 15.48Z"></path></svg>

